<?xml version="1.0" encoding="UTF-8" standalone="no"?>
<!DOCTYPE svg PUBLIC "-//W3C//DTD SVG 1.1//EN"
 "http://www.w3.org/Graphics/SVG/1.1/DTD/svg11.dtd">
<!-- Generated by graphviz version 2.30.1 (20130704.1115)
 -->
<!-- Title: G Pages: 1 -->
<svg width="695pt" height="260pt"
 viewBox="0.00 0.00 695.00 260.00" xmlns="http://www.w3.org/2000/svg" xmlns:xlink="http://www.w3.org/1999/xlink">
<g id="graph0" class="graph" transform="scale(1 1) rotate(0) translate(4 256)">
<title>G</title>
<polygon fill="white" stroke="white" points="-4,5 -4,-256 692,-256 692,5 -4,5"/>
<!-- node&#45;webkit -->
<g id="node1" class="node"><title>node&#45;webkit</title>
<polygon fill="none" stroke="black" stroke-width="2" points="92.5,-108 9.5,-108 9.5,-72 92.5,-72 92.5,-108"/>
<text text-anchor="middle" x="51" y="-86.3" font-family="Times,serif" font-size="14.00">node&#45;webkit</text>
</g>
<!-- node -->
<g id="node8" class="node"><title>node</title>
<ellipse fill="none" stroke="black" cx="134" cy="-18" rx="27.4223" ry="18"/>
<text text-anchor="middle" x="134" y="-14.3" font-family="Times,serif" font-size="14.00">node</text>
</g>
<!-- node&#45;webkit&#45;&gt;node -->
<g id="edge1" class="edge"><title>node&#45;webkit&#45;&gt;node</title>
<path fill="none" stroke="black" d="M71.5169,-71.6966C83.1401,-61.8939 97.7435,-49.5778 109.909,-39.3177"/>
<polygon fill="black" stroke="black" points="112.487,-41.7218 117.875,-32.5992 107.974,-36.3707 112.487,-41.7218"/>
</g>
<!-- webkit -->
<g id="node9" class="node"><title>webkit</title>
<ellipse fill="none" stroke="black" cx="51" cy="-18" rx="34.1708" ry="18"/>
<text text-anchor="middle" x="51" y="-14.3" font-family="Times,serif" font-size="14.00">webkit</text>
</g>
<!-- node&#45;webkit&#45;&gt;webkit -->
<g id="edge2" class="edge"><title>node&#45;webkit&#45;&gt;webkit</title>
<path fill="none" stroke="black" d="M51,-71.6966C51,-63.9827 51,-54.7125 51,-46.1124"/>
<polygon fill="black" stroke="black" points="54.5001,-46.1043 51,-36.1043 47.5001,-46.1044 54.5001,-46.1043"/>
</g>
<!-- npm -->
<g id="node2" class="node"><title>npm</title>
<polygon fill="none" stroke="black" stroke-width="2" points="165,-108 111,-108 111,-72 165,-72 165,-108"/>
<text text-anchor="middle" x="138" y="-86.3" font-family="Times,serif" font-size="14.00">npm</text>
</g>
<!-- npm&#45;&gt;node -->
<g id="edge3" class="edge"><title>npm&#45;&gt;node</title>
<path fill="none" stroke="black" d="M137.011,-71.6966C136.57,-63.9827 136.041,-54.7125 135.549,-46.1124"/>
<polygon fill="black" stroke="black" points="139.042,-45.8883 134.977,-36.1043 132.054,-46.2878 139.042,-45.8883"/>
</g>
<!-- BackboneJS -->
<g id="node3" class="node"><title>BackboneJS</title>
<polygon fill="none" stroke="black" stroke-width="2" points="266.25,-108 183.75,-108 183.75,-72 266.25,-72 266.25,-108"/>
<text text-anchor="middle" x="225" y="-86.3" font-family="Times,serif" font-size="14.00">BackboneJS</text>
</g>
<!-- RactiveJS -->
<g id="node4" class="node"><title>RactiveJS</title>
<polygon fill="none" stroke="black" stroke-width="2" points="342.25,-36 271.75,-36 271.75,-0 342.25,-0 342.25,-36"/>
<text text-anchor="middle" x="307" y="-14.3" font-family="Times,serif" font-size="14.00">RactiveJS</text>
</g>
<!-- D3.js -->
<g id="node5" class="node"><title>D3.js</title>
<polygon fill="none" stroke="black" stroke-width="2" points="415,-36 361,-36 361,-0 415,-0 415,-36"/>
<text text-anchor="middle" x="388" y="-14.3" font-family="Times,serif" font-size="14.00">D3.js</text>
</g>
<!-- CodeMirror -->
<g id="node6" class="node"><title>CodeMirror</title>
<polygon fill="none" stroke="black" stroke-width="2" points="545,-36 463,-36 463,-0 545,-0 545,-36"/>
<text text-anchor="middle" x="504" y="-14.3" font-family="Times,serif" font-size="14.00">CodeMirror</text>
</g>
<!-- JsPlumb -->
<g id="node7" class="node"><title>JsPlumb</title>
<polygon fill="none" stroke="black" stroke-width="2" points="663.25,-36 600.75,-36 600.75,-0 663.25,-0 663.25,-36"/>
<text text-anchor="middle" x="632" y="-14.3" font-family="Times,serif" font-size="14.00">JsPlumb</text>
</g>
<!-- Packages -->
<g id="node10" class="node"><title>Packages</title>
<ellipse fill="none" stroke="black" cx="165" cy="-162" rx="43.319" ry="18"/>
<text text-anchor="middle" x="165" y="-158.3" font-family="Times,serif" font-size="14.00">Packages</text>
</g>
<!-- Packages&#45;&gt;npm -->
<g id="edge4" class="edge"><title>Packages&#45;&gt;npm</title>
<path fill="none" stroke="black" d="M158.464,-144.055C155.425,-136.176 151.738,-126.617 148.335,-117.794"/>
<polygon fill="black" stroke="black" points="151.528,-116.346 144.663,-108.275 144.997,-118.865 151.528,-116.346"/>
</g>
<!-- Application -->
<g id="node11" class="node"><title>Application</title>
<ellipse fill="none" stroke="black" cx="51" cy="-162" rx="51.4931" ry="18"/>
<text text-anchor="middle" x="51" y="-158.3" font-family="Times,serif" font-size="14.00">Application</text>
</g>
<!-- Application&#45;&gt;node&#45;webkit -->
<g id="edge5" class="edge"><title>Application&#45;&gt;node&#45;webkit</title>
<path fill="none" stroke="black" d="M51,-143.697C51,-135.983 51,-126.712 51,-118.112"/>
<polygon fill="black" stroke="black" points="54.5001,-118.104 51,-108.104 47.5001,-118.104 54.5001,-118.104"/>
</g>
<!-- Framework -->
<g id="node12" class="node"><title>Framework</title>
<ellipse fill="none" stroke="black" cx="165" cy="-234" rx="51.4931" ry="18"/>
<text text-anchor="middle" x="165" y="-230.3" font-family="Times,serif" font-size="14.00">Framework</text>
</g>
<!-- Framework&#45;&gt;Application -->
<g id="edge6" class="edge"><title>Framework&#45;&gt;Application</title>
<path fill="none" stroke="black" d="M140.544,-217.983C124.165,-207.926 102.393,-194.557 84.4197,-183.521"/>
<polygon fill="black" stroke="black" points="85.7686,-180.242 75.4154,-177.992 82.1057,-186.207 85.7686,-180.242"/>
</g>
<!-- Framework&#45;&gt;Packages -->
<g id="edge7" class="edge"><title>Framework&#45;&gt;Packages</title>
<path fill="none" stroke="black" d="M165,-215.697C165,-207.983 165,-198.712 165,-190.112"/>
<polygon fill="black" stroke="black" points="168.5,-190.104 165,-180.104 161.5,-190.104 168.5,-190.104"/>
</g>
<!-- User Interface -->
<g id="node13" class="node"><title>User Interface</title>
<ellipse fill="none" stroke="black" cx="358" cy="-162" rx="61.1419" ry="18"/>
<text text-anchor="middle" x="358" y="-158.3" font-family="Times,serif" font-size="14.00">User Interface</text>
</g>
<!-- Framework&#45;&gt;User Interface -->
<g id="edge8" class="edge"><title>Framework&#45;&gt;User Interface</title>
<path fill="none" stroke="black" d="M199.505,-220.485C230.689,-209.175 276.851,-192.432 311.324,-179.929"/>
<polygon fill="black" stroke="black" points="312.958,-183.06 321.166,-176.36 310.571,-176.479 312.958,-183.06"/>
</g>
<!-- User Interface&#45;&gt;BackboneJS -->
<g id="edge9" class="edge"><title>User Interface&#45;&gt;BackboneJS</title>
<path fill="none" stroke="black" d="M329.468,-145.983C311.2,-136.368 287.182,-123.727 266.782,-112.991"/>
<polygon fill="black" stroke="black" points="268.177,-109.77 257.698,-108.209 264.917,-115.964 268.177,-109.77"/>
</g>
<!-- Command Views -->
<g id="node14" class="node"><title>Command Views</title>
<ellipse fill="none" stroke="black" cx="358" cy="-90" rx="73.1654" ry="18"/>
<text text-anchor="middle" x="358" y="-86.3" font-family="Times,serif" font-size="14.00">Command Views</text>
</g>
<!-- User Interface&#45;&gt;Command Views -->
<g id="edge10" class="edge"><title>User Interface&#45;&gt;Command Views</title>
<path fill="none" stroke="black" d="M358,-143.697C358,-135.983 358,-126.712 358,-118.112"/>
<polygon fill="black" stroke="black" points="361.5,-118.104 358,-108.104 354.5,-118.104 361.5,-118.104"/>
</g>
<!-- Text Editors -->
<g id="node15" class="node"><title>Text Editors</title>
<ellipse fill="none" stroke="black" cx="504" cy="-90" rx="54.3924" ry="18"/>
<text text-anchor="middle" x="504" y="-86.3" font-family="Times,serif" font-size="14.00">Text Editors</text>
</g>
<!-- User Interface&#45;&gt;Text Editors -->
<g id="edge11" class="edge"><title>User Interface&#45;&gt;Text Editors</title>
<path fill="none" stroke="black" d="M388.606,-146.326C410.899,-135.637 441.265,-121.079 465.251,-109.579"/>
<polygon fill="black" stroke="black" points="466.927,-112.656 474.431,-105.177 463.901,-106.344 466.927,-112.656"/>
</g>
<!-- Visual Pipes -->
<g id="node16" class="node"><title>Visual Pipes</title>
<ellipse fill="none" stroke="black" cx="632" cy="-90" rx="55.3682" ry="18"/>
<text text-anchor="middle" x="632" y="-86.3" font-family="Times,serif" font-size="14.00">Visual Pipes</text>
</g>
<!-- User Interface&#45;&gt;Visual Pipes -->
<g id="edge12" class="edge"><title>User Interface&#45;&gt;Visual Pipes</title>
<path fill="none" stroke="black" d="M402.871,-149.724C445.21,-139.06 510.45,-122.565 567,-108 571.375,-106.873 575.915,-105.698 580.468,-104.515"/>
<polygon fill="black" stroke="black" points="581.606,-107.836 590.402,-101.929 579.842,-101.062 581.606,-107.836"/>
</g>
<!-- Command Views&#45;&gt;RactiveJS -->
<g id="edge13" class="edge"><title>Command Views&#45;&gt;RactiveJS</title>
<path fill="none" stroke="black" d="M345.654,-72.055C339.605,-63.7526 332.197,-53.5837 325.49,-44.3778"/>
<polygon fill="black" stroke="black" points="328.304,-42.2967 319.586,-36.2753 322.646,-46.4187 328.304,-42.2967"/>
</g>
<!-- Command Views&#45;&gt;D3.js -->
<g id="edge14" class="edge"><title>Command Views&#45;&gt;D3.js</title>
<path fill="none" stroke="black" d="M365.262,-72.055C368.675,-64.0915 372.824,-54.4107 376.639,-45.5097"/>
<polygon fill="black" stroke="black" points="379.874,-46.8455 380.596,-36.2753 373.44,-44.088 379.874,-46.8455"/>
</g>
<!-- Text Editors&#45;&gt;CodeMirror -->
<g id="edge15" class="edge"><title>Text Editors&#45;&gt;CodeMirror</title>
<path fill="none" stroke="black" d="M504,-71.6966C504,-63.9827 504,-54.7125 504,-46.1124"/>
<polygon fill="black" stroke="black" points="507.5,-46.1043 504,-36.1043 500.5,-46.1044 507.5,-46.1043"/>
</g>
<!-- Visual Pipes&#45;&gt;JsPlumb -->
<g id="edge16" class="edge"><title>Visual Pipes&#45;&gt;JsPlumb</title>
<path fill="none" stroke="black" d="M632,-71.6966C632,-63.9827 632,-54.7125 632,-46.1124"/>
<polygon fill="black" stroke="black" points="635.5,-46.1043 632,-36.1043 628.5,-46.1044 635.5,-46.1043"/>
</g>
</g>
</svg>
